# xmcd
#
# Track frame offsets: 
#        179
#        9724
#        21375
#        30119
#        41133
#        50331
#        58995
#        69712
#        80964
#        89117
#        99532
#        108480
#
# Disc length: 1585 seconds
#
# Revision: 2
# Processed by: cddbd v1.5.2PL0 Copyright (c) Steve Scherf et al.
# Submitted via: ExactAudioCopyFreeDBPlugin 1.0
#
DISCID=a9062f0c
DTITLE=Johnny Cash - 1959 - Hymns by Johnny Cash
DYEAR=1959
DGENRE=Country
TTITLE0=It Was Jesus
TTITLE1=I Saw a Man
TTITLE2=Are All the Children In
TTITLE3=The Old Account
TTITLE4=Lead Me Gently Home
TTITLE5=Swing Low, Sweet Chariot
TTITLE6=Snow in His Hair
TTITLE7=Lead Me, Father
TTITLE8=I Called Him
TTITLE9=These Things Shall Pass
TTITLE10=He'll Be a Friend
TTITLE11=God Will
EXTD=
EXTT0=
EXTT1=
EXTT2=
EXTT3=
EXTT4=
EXTT5=
EXTT6=
EXTT7=
EXTT8=
EXTT9=
EXTT10=
EXTT11=
PLAYORDER=
